<?xml version="1.0" encoding="UTF-8"?>
<svg xmlns="http://www.w3.org/2000/svg" xmlns:xlink="http://www.w3.org/1999/xlink" width="32pt" height="32pt" viewBox="0 0 32 32" version="1.1">
<g id="surface1">
<path style=" stroke:none;fill-rule:nonzero;fill:rgb(0%,0%,0%);fill-opacity:1;" d="M 19.75 1.835938 C 19.742188 1.84375 19.378906 1.894531 18.945312 1.953125 C 16.703125 2.238281 14.375 3.21875 12.078125 4.851562 C 10.433594 6.007812 9.132812 7.460938 8.363281 8.992188 C 7.1875 11.355469 7.53125 14.1875 9.40625 17.441406 C 9.625 17.832031 10.144531 18.675781 10.558594 19.328125 C 10.96875 19.980469 11.355469 20.601562 11.410156 20.703125 L 11.507812 20.902344 L 10.667969 21.34375 C 9.511719 21.964844 8.804688 22.4375 8.167969 23.046875 C 7.195312 23.960938 6.664062 24.824219 6.527344 25.683594 C 6.4375 26.257812 6.523438 26.714844 6.828125 27.320312 C 7.136719 27.929688 7.539062 28.339844 8.097656 28.613281 C 8.539062 28.824219 8.558594 28.832031 9.375 28.832031 C 10.125 28.824219 10.253906 28.8125 10.644531 28.660156 C 11.75 28.21875 12.820312 27.207031 13.351562 26.085938 C 13.683594 25.390625 13.777344 24.824219 13.734375 23.871094 C 13.703125 23.085938 13.625 22.679688 13.40625 22.015625 C 13.351562 21.835938 13.3125 21.675781 13.320312 21.664062 C 13.382812 21.605469 14.757812 21.203125 15.730469 20.953125 C 16.8125 20.679688 17.945312 20.46875 18.835938 20.382812 C 19.289062 20.339844 19.878906 20.121094 20.027344 19.941406 C 20.070312 19.886719 20.140625 19.839844 20.171875 19.839844 C 20.210938 19.839844 20.34375 19.757812 20.472656 19.660156 C 20.601562 19.558594 20.933594 19.347656 21.214844 19.179688 C 21.742188 18.875 21.804688 18.824219 22.554688 18.054688 C 22.796875 17.804688 23.035156 17.601562 23.070312 17.601562 C 23.109375 17.601562 23.277344 17.460938 23.449219 17.285156 L 23.757812 16.980469 L 23.476562 16.742188 C 23.320312 16.613281 22.929688 16.300781 22.597656 16.042969 L 21.992188 15.585938 L 21.683594 15.910156 C 21.511719 16.097656 21.382812 16.269531 21.390625 16.308594 C 21.402344 16.339844 21.144531 16.640625 20.832031 16.972656 C 20.332031 17.484375 20.199219 17.675781 19.910156 18.273438 C 19.71875 18.664062 19.546875 18.988281 19.519531 19.007812 C 19.496094 19.027344 19.410156 19.175781 19.328125 19.339844 C 19.1875 19.621094 19.167969 19.640625 18.980469 19.597656 C 18.875 19.570312 18.222656 19.550781 17.535156 19.558594 C 15.898438 19.566406 15.289062 19.671875 12.859375 20.398438 C 12.78125 20.414062 12.441406 19.902344 11.511719 18.355469 C 10.105469 16.007812 9.867188 15.558594 9.625 14.753906 C 9.394531 13.972656 9.382812 12.945312 9.585938 12.199219 C 9.957031 10.898438 10.664062 9.792969 11.921875 8.542969 C 13.476562 7.007812 15.480469 5.703125 17.53125 4.894531 C 18.898438 4.363281 19.710938 4.242188 21.375 4.339844 C 22.65625 4.414062 23.019531 4.472656 22.988281 4.601562 C 22.980469 4.644531 23.097656 4.671875 23.320312 4.671875 C 23.511719 4.671875 23.691406 4.699219 23.710938 4.734375 C 23.730469 4.769531 23.820312 4.800781 23.902344 4.800781 C 24.070312 4.800781 24.351562 5.101562 24.492188 5.425781 C 24.570312 5.621094 24.570312 5.695312 24.449219 6.164062 C 24.292969 6.765625 24.03125 7.269531 23.4375 8.128906 C 22.71875 9.152344 22.023438 9.976562 21.042969 10.945312 C 20.453125 11.519531 20.097656 11.921875 20.097656 12 C 20.097656 12.1875 20.167969 12.269531 20.382812 12.351562 C 20.558594 12.414062 20.628906 12.398438 21.089844 12.167969 C 21.875 11.761719 23.019531 10.980469 23.496094 10.527344 C 23.730469 10.296875 23.957031 10.113281 23.992188 10.113281 C 24.03125 10.113281 24.097656 10.042969 24.140625 9.957031 C 24.1875 9.867188 24.34375 9.664062 24.5 9.492188 C 25.09375 8.820312 25.984375 7.179688 26.207031 6.335938 C 26.257812 6.144531 26.304688 5.722656 26.304688 5.402344 C 26.304688 4.914062 26.277344 4.773438 26.15625 4.539062 C 26.074219 4.382812 25.914062 4.082031 25.796875 3.871094 C 25.613281 3.53125 25.125 2.945312 25.023438 2.945312 C 25 2.945312 24.742188 2.816406 24.453125 2.664062 C 23.828125 2.324219 23.546875 2.222656 23.199219 2.203125 C 22.894531 2.1875 21.761719 1.992188 21.675781 1.9375 C 21.621094 1.902344 19.78125 1.804688 19.75 1.835938 Z M 12.128906 22.65625 C 12.261719 23.820312 11.640625 25.0625 10.378906 26.144531 C 9.453125 26.945312 8.734375 27.269531 8.121094 27.167969 C 7.796875 27.109375 7.726562 26.957031 7.808594 26.453125 C 7.96875 25.460938 8.910156 24.261719 10.335938 23.230469 C 10.9375 22.804688 11.96875 22.203125 12.039062 22.238281 C 12.0625 22.257812 12.101562 22.445312 12.128906 22.65625 Z M 12.128906 22.65625 "/>
</g>
</svg>
